<?xml version="1.0" encoding="UTF-8"?>
<svg version="1.1" xmlns="http://www.w3.org/2000/svg" width="40" height="40">
<path d="M0 0 C3.135 -0.165 6.27 -0.33 9.5 -0.5 C10.47130859 -0.57283203 11.44261719 -0.64566406 12.44335938 -0.72070312 C17.46431152 -0.84735041 20.70363545 -0.11438811 24.625 3.125 C29.64608885 8.85830003 28.87882234 15.27555627 28.5 22.5 C28.335 26.955 28.17 31.41 28 36 C18.76 36 9.52 36 0 36 C0 24.12 0 12.24 0 0 Z " fill="#FFFFFF" transform="translate(6,2)"/>
<path d="M0 0 C3.135 -0.165 6.27 -0.33 9.5 -0.5 C10.47130859 -0.57283203 11.44261719 -0.64566406 12.44335938 -0.72070312 C17.46431152 -0.84735041 20.70363545 -0.11438811 24.625 3.125 C29.64608885 8.85830003 28.87882234 15.27555627 28.5 22.5 C28.335 26.955 28.17 31.41 28 36 C18.76 36 9.52 36 0 36 C0 24.12 0 12.24 0 0 Z M1 1 C1 12.22 1 23.44 1 35 C9.58 35 18.16 35 27 35 C27 26.75 27 18.5 27 10 C24.03 10 21.06 10 18 10 C18 7.03 18 4.06 18 1 C12.39 1 6.78 1 1 1 Z " fill="#798C9C" transform="translate(6,2)"/>
<path d="M0 0 C1.16959987 0.97566112 2.33561177 1.955625 3.5 2.9375 C4.1496875 3.48277344 4.799375 4.02804688 5.46875 4.58984375 C5.9740625 5.05519531 6.479375 5.52054688 7 6 C7 6.33 7 6.66 7 7 C4.69 7 2.38 7 0 7 C0 4.69 0 2.38 0 0 Z " fill="#FCFCFD" transform="translate(25,4)"/>
</svg>
